<svg width="48" height="48" viewBox="0 0 48 48" fill="none" xmlns="http://www.w3.org/2000/svg">
<path d="M45 15.75H18C17.4033 15.75 16.831 15.9871 16.409 16.409C15.9871 16.831 15.75 17.4033 15.75 18V45C15.75 45.5967 15.9871 46.169 16.409 46.591C16.831 47.0129 17.4033 47.25 18 47.25H45C45.5967 47.25 46.169 47.0129 46.591 46.591C47.0129 46.169 47.25 45.5967 47.25 45V18C47.25 17.4033 47.0129 16.831 46.591 16.409C46.169 15.9871 45.5967 15.75 45 15.75ZM43.5 36.75H42V43.5C42 43.6989 41.921 43.8897 41.7803 44.0303C41.6397 44.171 41.4489 44.25 41.25 44.25H38.25C38.0511 44.25 37.8603 44.171 37.7197 44.0303C37.579 43.8897 37.5 43.6989 37.5 43.5V36.75H36C35.8661 36.75 35.7347 36.7142 35.6193 36.6462C35.504 36.5783 35.4089 36.4807 35.344 36.3636C35.2791 36.2465 35.2467 36.1141 35.2503 35.9803C35.2538 35.8465 35.293 35.716 35.364 35.6025L39.114 29.6025C39.1859 29.5002 39.2814 29.4167 39.3923 29.3591C39.5033 29.3015 39.6265 29.2714 39.7515 29.2714C39.8765 29.2714 39.9997 29.3015 40.1107 29.3591C40.2216 29.4167 40.3171 29.5002 40.389 29.6025L44.139 35.6025C44.2101 35.7162 44.2494 35.847 44.2528 35.9811C44.2562 36.1152 44.2235 36.2477 44.1583 36.3649C44.093 36.4821 43.9975 36.5796 43.8817 36.6474C43.766 36.7151 43.6341 36.7505 43.5 36.75Z" fill="url(#paint0_linear_4019_220)"/>
<path d="M37.3762 27.7606L20.025 30.6519C19.6356 29.2405 18.7424 28.0208 17.5145 27.2235C16.2865 26.4262 14.8089 26.1066 13.3612 26.3251L7.48048 1.32914C7.43758 1.14659 7.32784 0.986736 7.17291 0.881088C7.01798 0.77544 6.82909 0.731664 6.64348 0.758391L1.39348 1.50839C1.29396 1.51995 1.19776 1.55133 1.11056 1.60068C1.02337 1.65003 0.946944 1.71635 0.885805 1.79572C0.824666 1.8751 0.780051 1.96592 0.754594 2.06282C0.729137 2.15973 0.723354 2.26075 0.737586 2.35992C0.751818 2.4591 0.785778 2.55442 0.837459 2.64025C0.889141 2.72609 0.957496 2.8007 1.03849 2.85967C1.11948 2.91865 1.21147 2.96081 1.30903 2.98364C1.40658 3.00648 1.50772 3.00954 1.60648 2.99264L6.17698 2.34014L11.9145 26.7234C10.9153 27.1456 10.0493 27.8308 9.40857 28.7061C8.76784 29.5813 8.37637 30.6139 8.27582 31.694C8.17526 32.774 8.36938 33.8611 8.83752 34.8396C9.30566 35.8181 10.0303 36.6514 10.9344 37.2508C11.8384 37.8503 12.888 38.1934 13.9716 38.2437C15.0552 38.2941 16.1321 38.0497 17.0878 37.5367C18.0435 37.0236 18.8423 36.2611 19.3991 35.3302C19.9559 34.3993 20.25 33.3349 20.25 32.2501C20.25 32.2119 20.2447 32.1751 20.244 32.1369L37.6237 29.2404C37.82 29.2076 37.9951 29.0981 38.1107 28.9362C38.2262 28.7742 38.2727 28.573 38.2399 28.3768C38.207 28.1805 38.0976 28.0054 37.9356 27.8898C37.7737 27.7743 37.5725 27.7278 37.3762 27.7606ZM14.25 36.7501C13.36 36.7501 12.4899 36.4862 11.7499 35.9918C11.0099 35.4973 10.4331 34.7945 10.0925 33.9722C9.75193 33.1499 9.66282 32.2451 9.83645 31.3722C10.0101 30.4993 10.4387 29.6975 11.068 29.0682C11.6973 28.4388 12.4992 28.0102 13.3721 27.8366C14.245 27.663 15.1498 27.7521 15.9721 28.0927C16.7943 28.4333 17.4971 29.0101 17.9916 29.7501C18.4861 30.4901 18.75 31.3601 18.75 32.2501C18.7488 33.4432 18.2743 34.5872 17.4306 35.4308C16.587 36.2745 15.4431 36.7489 14.25 36.7501Z" fill="#0074D4"/>
<path d="M18.1502 14.2359L29.4002 11.9859C29.4968 11.9662 29.5886 11.9277 29.6703 11.8725C29.752 11.8174 29.822 11.7466 29.8763 11.6643C29.9307 11.5821 29.9682 11.4899 29.9869 11.3931C30.0056 11.2963 30.005 11.1968 29.9852 11.1002L28.4852 3.60018C28.4655 3.50365 28.427 3.41194 28.3719 3.33029C28.3167 3.24865 28.2461 3.17866 28.1639 3.12434C28.0817 3.07001 27.9896 3.03241 27.8929 3.01368C27.7962 2.99495 27.6967 2.99546 27.6002 3.01518L16.3502 5.26518C16.2536 5.28486 16.1619 5.32336 16.0803 5.37849C15.9986 5.43362 15.9287 5.5043 15.8743 5.58648C15.82 5.66867 15.7824 5.76075 15.7637 5.85747C15.7449 5.95419 15.7455 6.05365 15.7652 6.15018L17.2652 13.6502C17.2848 13.7468 17.3232 13.8386 17.3783 13.9203C17.4334 14.002 17.5041 14.0721 17.5863 14.1265C17.6685 14.1809 17.7606 14.2186 17.8573 14.2373C17.9541 14.2561 18.0536 14.2556 18.1502 14.2359ZM27.1644 4.63593L28.3704 10.6652L18.5889 12.6182L17.3829 6.58893L27.1644 4.63593Z" fill="#0074D4"/>
<path d="M36.7372 13.3623C36.7007 13.1686 36.5894 12.9971 36.4274 12.8848C36.2655 12.7726 36.0658 12.7286 35.8717 12.7623L18.6217 15.7623C18.5238 15.7794 18.4303 15.8157 18.3466 15.8692C18.2629 15.9227 18.1907 15.9923 18.1341 16.0739C18.0775 16.1555 18.0377 16.2476 18.017 16.3447C17.9963 16.4419 17.9951 16.5422 18.0134 16.6398L20.2634 28.6398C20.2959 28.8114 20.3872 28.9663 20.5217 29.0777C20.6561 29.1892 20.8253 29.2502 20.9999 29.2503C21.0431 29.2501 21.0863 29.2466 21.1289 29.2398L38.3789 26.2398C38.4768 26.2228 38.5704 26.1866 38.6542 26.1331C38.738 26.0797 38.8103 26.0101 38.867 25.9284C38.9236 25.8468 38.9635 25.7547 38.9843 25.6575C39.005 25.5603 39.0063 25.46 38.9879 25.3623L36.7372 13.3623ZM21.5999 27.6348L19.6267 17.1093L35.3999 14.3666L37.3739 24.8921L21.5999 27.6348Z" fill="#0074D4"/>
<defs>
<linearGradient id="paint0_linear_4019_220" x1="31.5" y1="15.75" x2="31.5" y2="47.25" gradientUnits="userSpaceOnUse">
<stop stop-color="#EEF2F5"/>
<stop offset="1" stop-color="#FAFBFC"/>
</linearGradient>
</defs>
</svg>
